# xmcd
#
# Track frame offsets:
# 150
# 12827
# 22804
# 34881
# 54233
# 68710
# 79662
# 91214
# 106816
# 118293
#
# Disc length: 1598 seconds
#
#
# Revision: 0
# Processed by: cddbd v1.5.2PL0 Copyright (c) Steve Scherf et al.
# Submitted via: FreeRIP 2.951 
#
DISCID=6f063c0a
DTITLE=Wyrton - Tajná pøání
DYEAR=1900
DGENRE=Bluegrass
TTITLE0=Cesta
TTITLE1=Is It True
TTITLE2=Old Joe Clark
TTITLE3=Pár zlatých koní
TTITLE4=Your Love Is Like A Flower
TTITLE5=Zvony, co zní (I'm Winding My Way Back Home)
TTITLE6=Salty Dog
TTITLE7=Tajná pøání
TTITLE8=Chlap jako já
TTITLE9=Komár
EXTD=Ronov nad Doubravou
EXTT0=
EXTT1=
EXTT2=
EXTT3=
EXTT4=
EXTT5=
EXTT6=
EXTT7=
EXTT8=
EXTT9=
PLAYORDER=
